<svg xmlns="http://www.w3.org/2000/svg" viewBox="0 0 128 128">
  <defs>
    <filter id="a" filterUnits="userSpaceOnUse">
      <feFlood flood-color="#fff"/>
      <feBlend in="SourceGraphic"/>
    </filter>
    <mask id="b" maskUnits="userSpaceOnUse">
      <g filter="url(#a)">
        <circle cx="64" cy="64" r="6"/>
        <circle cx="64" cy="34" r="21"/>
        <circle cx="64" cy="34" r="21" transform="rotate(120 64 64)"/>
        <circle cx="64" cy="34" r="21" transform="rotate(-120 64 64)"/>
        <rect x="63" y="53" width="2" height="6"/>
        <rect x="63" y="53" width="2" height="6" transform="rotate(120 64 64)"/>
        <rect x="63" y="53" width="2" height="6" transform="rotate(-120 64 64)"/>
        <rect x="60" y="10" width="8" height="4"/>
        <rect x="60" y="10" width="8" height="4" transform="rotate(120 64 64)"/>
        <rect x="60" y="10" width="8" height="4" transform="rotate(-120 64 64)"/>
      </g>
    </mask>
    <mask id="c" maskUnits="userSpaceOnUse">
      <circle cx="64" cy="64" r="20" filter="url(#a)"/>
    </mask>
    <clipPath id="d">
      <circle cx="64" cy="34" r="19"/>
      <circle cx="64" cy="34" r="19" transform="rotate(120 64 64)"/>
      <circle cx="64" cy="34" r="19" transform="rotate(-120 64 64)"/>
    </clipPath>
  </defs>
  <g mask="url(#b)">
    <circle cx="64" cy="42" r="30"/>
    <circle cx="64" cy="42" r="30" transform="rotate(120 64 64)"/>
    <circle cx="64" cy="42" r="30" transform="rotate(-120 64 64)"/>
  </g>
  <circle clip-path="url(#d)" mask="url(#c)" cx="64" cy="64" r="27"/>
</svg>
